<mxfile host="app.diagrams.net" modified="2021-03-04T08:04:00.819Z" agent="5.0 (Macintosh; Intel Mac OS X 11_2_0) AppleWebKit/537.36 (KHTML, like Gecko) Chrome/88.0.4324.192 Safari/537.36" etag="pg7zed6FejvfCKk27UCQ" version="14.4.3" type="github">
  <diagram id="prtHgNgQTEPvFCAcTncT" name="Page-1">
    <mxGraphModel dx="1426" dy="665" grid="1" gridSize="10" guides="1" tooltips="1" connect="1" arrows="1" fold="1" page="1" pageScale="1" pageWidth="827" pageHeight="1169" math="0" shadow="0">
      <root>
        <mxCell id="0" />
        <mxCell id="1" parent="0" />
        <mxCell id="14d7Jm0FJhlq4cAis3wY-11" value="" style="rounded=1;" parent="1" vertex="1">
          <mxGeometry x="69.5" y="450" width="629" height="60" as="geometry" />
        </mxCell>
        <mxCell id="14d7Jm0FJhlq4cAis3wY-5" value="博弈数据&#xa;图表报告" style="rounded=1;" parent="1" vertex="1">
          <mxGeometry x="189" y="460" width="110" height="40" as="geometry" />
        </mxCell>
        <mxCell id="14d7Jm0FJhlq4cAis3wY-6" value="博弈数据&#xa;文字报告" style="rounded=1;" parent="1" vertex="1">
          <mxGeometry x="329" y="460" width="110" height="40" as="geometry" />
        </mxCell>
        <mxCell id="14d7Jm0FJhlq4cAis3wY-7" value="博弈数据&#xa;统计分析报告" style="rounded=1;" parent="1" vertex="1">
          <mxGeometry x="529" y="460" width="110" height="40" as="geometry" />
        </mxCell>
        <mxCell id="14d7Jm0FJhlq4cAis3wY-10" value="" style="endArrow=none;dashed=1;dashPattern=1 3;strokeWidth=2;" parent="1" edge="1">
          <mxGeometry width="50" height="50" relative="1" as="geometry">
            <mxPoint x="469" y="479.5" as="sourcePoint" />
            <mxPoint x="509" y="480" as="targetPoint" />
          </mxGeometry>
        </mxCell>
        <mxCell id="14d7Jm0FJhlq4cAis3wY-12" value="博弈结果报告" style="text;strokeColor=none;fillColor=none;align=center;verticalAlign=middle;rounded=0;" parent="1" vertex="1">
          <mxGeometry x="80" y="470" width="80" height="20" as="geometry" />
        </mxCell>
        <mxCell id="14d7Jm0FJhlq4cAis3wY-13" value="" style="rounded=1;" parent="1" vertex="1">
          <mxGeometry x="69.5" y="100" width="629" height="60" as="geometry" />
        </mxCell>
        <mxCell id="14d7Jm0FJhlq4cAis3wY-14" value="静态防御博弈" style="rounded=1;" parent="1" vertex="1">
          <mxGeometry x="189" y="110" width="110" height="40" as="geometry" />
        </mxCell>
        <mxCell id="14d7Jm0FJhlq4cAis3wY-15" value="策略博弈" style="rounded=1;" parent="1" vertex="1">
          <mxGeometry x="329" y="110" width="110" height="40" as="geometry" />
        </mxCell>
        <mxCell id="14d7Jm0FJhlq4cAis3wY-16" value="特种网络&#xa;环境博弈" style="rounded=1;" parent="1" vertex="1">
          <mxGeometry x="529" y="110" width="110" height="40" as="geometry" />
        </mxCell>
        <mxCell id="14d7Jm0FJhlq4cAis3wY-17" value="" style="endArrow=none;dashed=1;dashPattern=1 3;strokeWidth=2;" parent="1" edge="1">
          <mxGeometry width="50" height="50" relative="1" as="geometry">
            <mxPoint x="469" y="129.5" as="sourcePoint" />
            <mxPoint x="509" y="130" as="targetPoint" />
          </mxGeometry>
        </mxCell>
        <mxCell id="14d7Jm0FJhlq4cAis3wY-18" value="博弈场景规划" style="text;strokeColor=none;fillColor=none;align=center;verticalAlign=middle;rounded=0;" parent="1" vertex="1">
          <mxGeometry x="80" y="120" width="80" height="20" as="geometry" />
        </mxCell>
        <mxCell id="14d7Jm0FJhlq4cAis3wY-19" value="" style="rounded=1;" parent="1" vertex="1">
          <mxGeometry x="69.5" y="200" width="629" height="110" as="geometry" />
        </mxCell>
        <mxCell id="14d7Jm0FJhlq4cAis3wY-20" value="编码识别" style="rounded=1;" parent="1" vertex="1">
          <mxGeometry x="170" y="210" width="110" height="40" as="geometry" />
        </mxCell>
        <mxCell id="14d7Jm0FJhlq4cAis3wY-21" value="关键词抽取" style="rounded=1;" parent="1" vertex="1">
          <mxGeometry x="299" y="210" width="110" height="40" as="geometry" />
        </mxCell>
        <mxCell id="14d7Jm0FJhlq4cAis3wY-22" value="规则抽取" style="rounded=1;" parent="1" vertex="1">
          <mxGeometry x="430" y="210" width="110" height="40" as="geometry" />
        </mxCell>
        <mxCell id="14d7Jm0FJhlq4cAis3wY-24" value="博弈数据采集" style="text;strokeColor=none;fillColor=none;align=center;verticalAlign=middle;rounded=0;" parent="1" vertex="1">
          <mxGeometry x="80" y="240" width="80" height="20" as="geometry" />
        </mxCell>
        <mxCell id="14d7Jm0FJhlq4cAis3wY-25" value="模型数据识别" style="rounded=1;" parent="1" vertex="1">
          <mxGeometry x="560" y="210" width="110" height="40" as="geometry" />
        </mxCell>
        <mxCell id="14d7Jm0FJhlq4cAis3wY-26" value="智能体状态读取" style="rounded=1;" parent="1" vertex="1">
          <mxGeometry x="170" y="260" width="110" height="40" as="geometry" />
        </mxCell>
        <mxCell id="14d7Jm0FJhlq4cAis3wY-27" value="网络信息采集" style="rounded=1;" parent="1" vertex="1">
          <mxGeometry x="299" y="260" width="110" height="40" as="geometry" />
        </mxCell>
        <mxCell id="14d7Jm0FJhlq4cAis3wY-30" value="" style="endArrow=none;dashed=1;dashPattern=1 3;strokeWidth=2;" parent="1" edge="1">
          <mxGeometry width="50" height="50" relative="1" as="geometry">
            <mxPoint x="450" y="279.5" as="sourcePoint" />
            <mxPoint x="500" y="279.5" as="targetPoint" />
            <Array as="points" />
          </mxGeometry>
        </mxCell>
        <mxCell id="14d7Jm0FJhlq4cAis3wY-31" value="" style="rounded=1;" parent="1" vertex="1">
          <mxGeometry x="69.5" y="350" width="629" height="60" as="geometry" />
        </mxCell>
        <mxCell id="14d7Jm0FJhlq4cAis3wY-32" value="智能体数据&#xa;预处理" style="rounded=1;" parent="1" vertex="1">
          <mxGeometry x="189" y="360" width="110" height="40" as="geometry" />
        </mxCell>
        <mxCell id="14d7Jm0FJhlq4cAis3wY-33" value="网络数据&#xa;预处理" style="rounded=1;" parent="1" vertex="1">
          <mxGeometry x="329" y="360" width="110" height="40" as="geometry" />
        </mxCell>
        <mxCell id="14d7Jm0FJhlq4cAis3wY-34" value="对抗数据&#xa;预处理" style="rounded=1;" parent="1" vertex="1">
          <mxGeometry x="529" y="360" width="110" height="40" as="geometry" />
        </mxCell>
        <mxCell id="14d7Jm0FJhlq4cAis3wY-35" value="" style="endArrow=none;dashed=1;dashPattern=1 3;strokeWidth=2;" parent="1" edge="1">
          <mxGeometry width="50" height="50" relative="1" as="geometry">
            <mxPoint x="469" y="379.5" as="sourcePoint" />
            <mxPoint x="509" y="380" as="targetPoint" />
          </mxGeometry>
        </mxCell>
        <mxCell id="14d7Jm0FJhlq4cAis3wY-36" value="博弈数据" style="text;strokeColor=none;fillColor=none;align=center;verticalAlign=middle;rounded=0;" parent="1" vertex="1">
          <mxGeometry x="80" y="370" width="80" height="20" as="geometry" />
        </mxCell>
        <mxCell id="14d7Jm0FJhlq4cAis3wY-37" value="" style="shape=flexArrow;endArrow=classic;html=1;" parent="1" edge="1">
          <mxGeometry width="50" height="50" relative="1" as="geometry">
            <mxPoint x="190" y="160" as="sourcePoint" />
            <mxPoint x="190" y="200" as="targetPoint" />
          </mxGeometry>
        </mxCell>
        <mxCell id="14d7Jm0FJhlq4cAis3wY-38" value="" style="shape=flexArrow;endArrow=classic;html=1;" parent="1" edge="1">
          <mxGeometry width="50" height="50" relative="1" as="geometry">
            <mxPoint x="383.8" y="160" as="sourcePoint" />
            <mxPoint x="383.8" y="200" as="targetPoint" />
          </mxGeometry>
        </mxCell>
        <mxCell id="14d7Jm0FJhlq4cAis3wY-39" value="" style="shape=flexArrow;endArrow=classic;html=1;" parent="1" edge="1">
          <mxGeometry width="50" height="50" relative="1" as="geometry">
            <mxPoint x="570" y="160" as="sourcePoint" />
            <mxPoint x="570" y="200" as="targetPoint" />
          </mxGeometry>
        </mxCell>
        <mxCell id="14d7Jm0FJhlq4cAis3wY-40" value="" style="shape=flexArrow;endArrow=classic;html=1;" parent="1" edge="1">
          <mxGeometry width="50" height="50" relative="1" as="geometry">
            <mxPoint x="189" y="310" as="sourcePoint" />
            <mxPoint x="189" y="350" as="targetPoint" />
          </mxGeometry>
        </mxCell>
        <mxCell id="14d7Jm0FJhlq4cAis3wY-41" value="" style="shape=flexArrow;endArrow=classic;html=1;" parent="1" edge="1">
          <mxGeometry width="50" height="50" relative="1" as="geometry">
            <mxPoint x="382.79999999999995" y="310" as="sourcePoint" />
            <mxPoint x="382.79999999999995" y="350" as="targetPoint" />
          </mxGeometry>
        </mxCell>
        <mxCell id="14d7Jm0FJhlq4cAis3wY-42" value="" style="shape=flexArrow;endArrow=classic;html=1;" parent="1" edge="1">
          <mxGeometry width="50" height="50" relative="1" as="geometry">
            <mxPoint x="569" y="310" as="sourcePoint" />
            <mxPoint x="569" y="350" as="targetPoint" />
          </mxGeometry>
        </mxCell>
        <mxCell id="14d7Jm0FJhlq4cAis3wY-43" value="" style="shape=flexArrow;endArrow=classic;html=1;" parent="1" edge="1">
          <mxGeometry width="50" height="50" relative="1" as="geometry">
            <mxPoint x="189" y="410" as="sourcePoint" />
            <mxPoint x="189" y="450" as="targetPoint" />
          </mxGeometry>
        </mxCell>
        <mxCell id="14d7Jm0FJhlq4cAis3wY-44" value="" style="shape=flexArrow;endArrow=classic;html=1;" parent="1" edge="1">
          <mxGeometry width="50" height="50" relative="1" as="geometry">
            <mxPoint x="382.79999999999995" y="410" as="sourcePoint" />
            <mxPoint x="382.79999999999995" y="450" as="targetPoint" />
          </mxGeometry>
        </mxCell>
        <mxCell id="14d7Jm0FJhlq4cAis3wY-45" value="" style="shape=flexArrow;endArrow=classic;html=1;" parent="1" edge="1">
          <mxGeometry width="50" height="50" relative="1" as="geometry">
            <mxPoint x="569.0000000000002" y="410" as="sourcePoint" />
            <mxPoint x="569.0000000000002" y="450" as="targetPoint" />
          </mxGeometry>
        </mxCell>
      </root>
    </mxGraphModel>
  </diagram>
</mxfile>
